<svg xmlns="http://www.w3.org/2000/svg" viewBox="0 0 100 66">
<g fill="none" fill-rule="evenodd">
<g fill="#1D1D1B">
<path class="h" d="M9.239 47.772v5.951H1.762v-5.951H0v13.996h1.762v-6.616h7.477v6.616h1.762V47.772zM20.9635242 56.71763877c0-2.23127754-1.0960352-4.01277533-3.2493392-4.01277533-2.1533039 0-3.2687224 1.78149779-3.2687224 4.01277533 0 2.23127753 1.1154185 3.99295153 3.2687224 3.99295153 2.153304 0 3.2493392-1.761674 3.2493392-3.99295153m-8.1427312 0c0-2.93612335 1.8788546-5.32422908 4.893392-5.32422908 3.0339207 0 4.8740088 2.38810573 4.8740088 5.32422908 0 2.93612333-1.8400881 5.32422903-4.8740088 5.32422903-3.0145374 0-4.893392-2.3881057-4.893392-5.32422903M24.231 61.768h1.586V47.772h-1.586zM35.2122907 56.75675771c0-2.34889868-1.1352422-3.99295154-3.2299559-3.99295154-1.9180617 0-2.8969163 1.72246696-2.8969163 3.99295154 0 2.29030839.9788546 3.97356829 2.9167401 3.97356829 2.2506608 0 3.2101321-1.6832599 3.2101321-3.97356829m-7.7515418-.01938326c0-3.36696035 1.9378855-5.32422908 4.4431718-5.32422908 1.4290749 0 2.5255507.70440529 3.1713656 1.66343613h.0387666v-5.30440529h1.585903V61.7677709h-1.585903v-1.2330396h-.0387666c-.7634361.9784141-1.7030837 1.5268722-3.131718 1.5268722-2.7603524 0-4.4828194-2.0748898-4.4828194-5.32422905M38.851674 61.7675947h1.5859031V51.64777093H38.851674V61.7675947zm0-12.03832598h1.5859031V47.772H38.851674v1.95726872zm5.3243612 3.24964758h.0392071c.7237885-.95903084 1.7418502-1.5660793 3.2101321-1.5660793 2.114097 0 3.4057269 1.15506608 3.4057269 3.24933921v7.10572689h-1.5854625v-6.96872248c0-1.31145375-.8612335-2.05506608-2.2898679-2.05506608-1.6052863 0-2.7797357 1.13524229-2.7797357 2.79911894v6.22466962h-1.585903V51.6480793h1.585903v1.330837zm15.756652 3.34722467c0-2.21189427-.9396476-3.58193833-3.0929515-3.58193833-1.8986784 0-2.8577093 1.4876652-2.8577093 3.67973569 0 2.21189427.9982379 3.66035237 2.8770925 3.66035237 2.3295155 0 3.0735683-1.6246696 3.0735683-3.75814973m-7.2621145 6.00925113h1.4682819c.1563877 1.115859 1.2132159 1.5462555 2.7788547 1.5462555 1.8599118 0 2.8969163-.8414097 2.8969163-2.6030837V59.849489h-.038326c-.7444934.9590308-1.5466961 1.5660793-2.9951542 1.5660793-2.6229075 0-4.4237886-2.0947137-4.4237886-5.01101323 0-3.15154185 1.976652-4.99162996 4.3255507-4.99162996 1.4682819 0 2.4079295.56784141 3.0933921 1.52687225h.038326v-1.29207049h1.585903V61.219533c0 2.6621146-1.761674 3.914978-4.4431718 3.914978-2.623348 0-4.1110132-1.0568282-4.2867841-2.7991189m10.2365198-3.8560793h1.6246696c.2154185 1.761674 1.3898679 2.2511013 2.8969163 2.2511013 1.6638767 0 2.3488987-.7242291 2.3488987-1.6638767 0-1.1352422-.7832599-1.42907484-2.6422908-1.82026427-1.9969163-.41101322-3.7784141-.82246696-3.7784141-3.03436124 0-1.68325991 1.2925111-2.77929515 3.6414097-2.77929515 2.5057269 0 3.738326 1.1938326 3.9735683 3.17092511h-1.6246696c-.1563876-1.330837-.8810573-1.91806167-2.3885462-1.91806167-1.4480177 0-2.0356829.64581497-2.0356829 1.44845815 0 1.09603524.9792952 1.31145374 2.7211454 1.66387665 2.0356828.41101321 3.7387665.86123348 3.7387665 3.19030832 0 2.0356829-1.6638766 3.0731278-3.9929515 3.0731278-2.7801762 0-4.3264317-1.3114537-4.4828194-3.5819383"></path>
</g>
<path class="h" fill="#1D1D1B" d="M.251 44.6h99.511v-1.154H.251z"></path><g fill="#ed2024">
<path d="M83.61471366 56.75675771c0-2.27048458-.95903084-3.99295154-2.87709251-3.99295154-2.21233481 0-3.22995595 1.80044053-3.22995595 3.99295154 0 2.19251099.88105727 3.97356829 3.21013216 3.97356829 1.93788546 0 2.8969163-1.6832599 2.8969163-3.97356829zM76.02 51.64794714h1.58546256v1.42863436h.03920704c.76387666-1.03700441 1.7814978-1.66343613 3.24933921-1.66343613 2.56431718 0 4.34537445 1.95726873 4.34537445 5.32422908 0 3.24933925-1.66343612 5.32422905-4.40396476 5.32422905-1.37048458 0-2.34889868-.4114537-3.1907489-1.4876652h-.03920704v4.4431718H76.02V51.64794714zM86.883 61.768h1.586V47.772h-1.586zM90.1121145 56.71763877c0-2.93612335 1.8792952-5.32422908 4.8933921-5.32422908 2.3881057 0 3.9735683 1.37004405 4.3264317 3.52334802h-1.6057268c-.2348018-1.37004405-1.1938326-2.21189427-2.7207049-2.21189427-2.1528634 0-3.2687225 1.78149779-3.2687225 4.01277533 0 2.23127753 1.1158591 3.99295153 3.2687225 3.99295153 1.6444934 0 2.6229075-.939207 2.7603524-2.5052863h1.5660793c-.215859 2.4273127-1.800881 3.8365638-4.3264317 3.8365638-3.0140969 0-4.8933921-2.3881057-4.8933921-5.32422903"></path>
</g>
<path fill="#ed2024" d="M5.17170485 18.7470044H16.7633348c5.4682819 0 8.2022026-2.7339207 8.2022026-7.1625551 0-4.75726868-2.1872246-7.16299556-7.9281938-7.16299556H5.17170485V18.7470044zM.251.15669603h18.2621145c6.8894274 0 11.537445 4.31938327 11.537445 10.71674007 0 4.7568282-2.0779736 8.1471366-6.7801762 9.6779736v.1638766c3.9916299 1.4220265 5.2488986 4.1555067 5.6312775 9.9515419.4378855 6.2881057 1.0942731 7.8735683 1.8048458 8.3656388v.2185022h-5.3039647c-.8198238-.7105727-.984141-2.1867842-1.421586-8.7480177-.3828193-5.7414096-2.6792951-7.7643171-7.9281938-7.7643171H5.17170485v16.5123348H.251V.15669604zM51.4186211 34.8157709c2.7925111 0 4.8185022-.7118942 6.1330397-1.9713656 1.0947136-1.1497797 1.7515418-2.6828194 1.7515418-4.5449339 0-4.8731278-3.4493392-7.2828194-8.2132158-7.2828194h-11.992511v13.7991189h12.3211453zM50.1591498 16.854978c4.7638766 0 7.6114537-2.3546256 7.6114537-6.406608 0-3.77841405-2.5740088-6.07797352-6.954185-6.07797352H39.0974758V16.854978h11.061674zM34.1697225.0985903H50.761793c4.1066079 0 7.2277533 1.09559472 9.4180616 3.39515419 1.5876652 1.64273128 2.5185022 3.88810573 2.5185022 6.68061671 0 4.3259912-2.4088105 7.0092511-6.2969163 8.2140969v.1643172c4.4356828 1.0400881 7.8850221 4.2158591 7.8850221 9.4731278 0 3.0114537-1.0400882 5.5854625-2.8471366 7.5017621-2.1907489 2.3546255-5.5854626 3.723348-9.8017621 3.723348H34.1697225V.0985903zM95.335978 33.50837h-.1052864c-2.7400881 3.8462556-6.7969163 5.7427313-11.7493392 5.7427313-10.5898678 0-17.7026431-8.0607929-17.7026431-19.4938326C65.7787093 8.69295154 72.0487533 0 83.9029383 0c8.745815 0 14.1198238 4.74185022 15.3317181 12.1180617h-4.8995595c-1.054185-5.00528637-4.584141-8.00837007-10.5374449-8.00837007-9.0621146 0-13.1718062 6.79647577-13.1718062 15.64757707 0 9.2202643 5.3740088 15.3845815 13.0132159 15.3845815 7.7453744 0 11.3806167-5.2687224 11.3806167-11.5911894v-.8955947H83.6919251V18.545815h16.0696035v19.914978h-3.0559471L95.335978 33.50837z"></path>
</g>
</svg>